<?xml version="1.0" encoding="UTF-8" standalone="no"?>
<!-- Created with Inkscape (http://www.inkscape.org/) -->

<svg
   xmlns:dc="http://purl.org/dc/elements/1.1/"
   xmlns:cc="http://creativecommons.org/ns#"
   xmlns:rdf="http://www.w3.org/1999/02/22-rdf-syntax-ns#"
   xmlns:svg="http://www.w3.org/2000/svg"
   xmlns="http://www.w3.org/2000/svg"
   xmlns:sodipodi="http://sodipodi.sourceforge.net/DTD/sodipodi-0.dtd"
   xmlns:inkscape="http://www.inkscape.org/namespaces/inkscape"
   id="svg3004"
   version="1.1"
   inkscape:version="0.48.4 r9939"
   width="131.25"
   height="43.75"
   xml:space="preserve"
   sodipodi:docname="mozilla.pdf"><metadata
     id="metadata3010"><rdf:RDF><cc:Work
         rdf:about=""><dc:format>image/svg+xml</dc:format><dc:type
           rdf:resource="http://purl.org/dc/dcmitype/StillImage" /><dc:title></dc:title></cc:Work></rdf:RDF></metadata><defs
     id="defs3008"><clipPath
       clipPathUnits="userSpaceOnUse"
       id="clipPath3018"><path
         d="m 54,738 504,0 0,-661.699 -504,0 L 54,738 z"
         id="path3020"
         inkscape:connector-curvature="0" /></clipPath><clipPath
       clipPathUnits="userSpaceOnUse"
       id="clipPath3026"><path
         d="m 60,732 105,0 0,-35 -105,0 0,35 z"
         id="path3028"
         inkscape:connector-curvature="0" /></clipPath><clipPath
       clipPathUnits="userSpaceOnUse"
       id="clipPath3036"><path
         d="m 54,738 504,0 0,-661.699 -504,0 L 54,738 z"
         id="path3038"
         inkscape:connector-curvature="0" /></clipPath></defs><sodipodi:namedview
     pagecolor="#ffffff"
     bordercolor="#666666"
     borderopacity="1"
     objecttolerance="10"
     gridtolerance="10"
     guidetolerance="10"
     inkscape:pageopacity="0"
     inkscape:pageshadow="2"
     inkscape:window-width="1201"
     inkscape:window-height="702"
     id="namedview3006"
     showgrid="false"
     inkscape:zoom="0.95353535"
     inkscape:cx="251.04139"
     inkscape:cy="-74.365898"
     inkscape:window-x="72"
     inkscape:window-y="31"
     inkscape:window-maximized="0"
     inkscape:current-layer="g3012"
     fit-margin-top="0"
     fit-margin-left="0"
     fit-margin-right="0"
     fit-margin-bottom="0" /><g
     id="g3012"
     inkscape:groupmode="layer"
     inkscape:label="mozilla"
     transform="matrix(1.25,0,0,-1.25,-75,915)"><g
       id="g3024"
       clip-path="url(#clipPath3026)"><path
         d="m 67.5,732 90,0 c 4.141,0 7.5,-3.359 7.5,-7.5 l 0,-20 c 0,-4.141 -3.359,-7.5 -7.5,-7.5 l -90,0 c -4.141,0 -7.5,3.359 -7.5,7.5 l 0,20 c 0,4.141 3.359,7.5 7.5,7.5 z"
         style="fill:#ff5050;fill-opacity:1;fill-rule:nonzero;stroke:none"
         id="path3030"
         inkscape:connector-curvature="0" /></g><g
       id="g3032"><g
         id="g3034"
         clip-path="url(#clipPath3036)"><text
           transform="matrix(1,0,0,-1,75,708)"
           id="text3040"><tspan
             style="font-size:18.75px;font-variant:normal;font-weight:normal;writing-mode:lr-tb;fill:#ffffff;fill-opacity:1;fill-rule:nonzero;stroke:none;font-family:DejaVu Serif;-inkscape-font-specification:DejaVuSerif"
             x="0 12.4875 21.450001 32.025002 37.96875 43.950001 51.46875"
             y="0"
             sodipodi:role="line"
             id="tspan3042">Try it!</tspan></text>
</g></g></g></svg>